<svg preserveAspectRatio="none" width="100%" height="100%" overflow="visible" style="display: block;" viewBox="0 0 15 14.7279" fill="none" xmlns="http://www.w3.org/2000/svg">
<path id="Arrow 1" d="M1 6.36396C0.447715 6.36396 0 6.81168 0 7.36396C0 7.91625 0.447715 8.36396 1 8.36396V7.36396V6.36396ZM14.7071 8.07107C15.0976 7.68054 15.0976 7.04738 14.7071 6.65685L8.34315 0.292893C7.95262 -0.097631 7.31946 -0.097631 6.92893 0.292893C6.53841 0.683418 6.53841 1.31658 6.92893 1.70711L12.5858 7.36396L6.92893 13.0208C6.53841 13.4113 6.53841 14.0445 6.92893 14.435C7.31946 14.8256 7.95262 14.8256 8.34315 14.435L14.7071 8.07107ZM1 7.36396V8.36396H14V7.36396V6.36396H1V7.36396Z" fill="var(--stroke-0, #012611)"/>
</svg>
