<svg preserveAspectRatio="none" width="100%" height="100%" overflow="visible" style="display: block;" viewBox="0 0 70.5274 56.9387" fill="none" xmlns="http://www.w3.org/2000/svg">
<path id="Star 1" d="M23.9856 7.4126C28.2563 -2.47087 42.271 -2.47087 46.5418 7.4126L47.0735 8.64314C48.695 12.3955 52.3916 14.8252 56.4794 14.8252H61.5651C70.8319 14.8252 73.9873 27.1826 65.855 31.6254V31.6254C61.7982 33.8417 60.0974 38.7835 61.9311 43.027L62.1537 43.542C65.7619 51.8923 56.7732 60.0888 48.7903 55.7276L41.2636 51.6157C37.5245 49.573 33.0029 49.573 29.2637 51.6157L21.7371 55.7276C13.7542 60.0888 4.76547 51.8923 8.37371 43.542L8.59625 43.027C10.4299 38.7835 8.72921 33.8417 4.67237 31.6254V31.6254C-3.45998 27.1826 -0.304552 14.8252 8.96225 14.8252H14.048C18.1357 14.8252 21.8324 12.3955 23.4539 8.64314L23.9856 7.4126Z" fill="var(--fill-0, #45735D)"/>
</svg>
