<svg preserveAspectRatio="none" width="100%" height="100%" overflow="visible" style="display: block;" viewBox="0 0 880 356" fill="none" xmlns="http://www.w3.org/2000/svg">
<g id="hero [dino game]">
<rect width="880" height="356" rx="123" fill="var(--fill-0, #D9CFC7)"/>
<path id="Vector 22" d="M159.941 169.025C161.478 171.977 164.792 180.145 165.631 187.613C166.118 191.949 165.902 199.617 166.577 209.016C168.041 229.375 169.757 241.805 169.51 244.037C169.395 245.081 168.771 245.85 168.117 246.315C165.243 248.357 161.376 246.844 152.509 244.376C144.516 242.151 129.516 237.649 121.417 235.325C112.627 232.803 111.032 233.092 109.517 233.733C106.194 235.138 104.153 246.191 103.05 252.686C102.488 255.995 103.698 258.948 105.081 260.575C107.89 263.879 113.014 265.984 127.613 268.396C135.019 269.621 147.077 269.075 153.985 269.102C168.653 269.158 179.976 263.771 183.3 262.006C185.589 260.791 187.599 251.782 189.545 235.635C191.507 219.357 188.205 207.743 187.017 199.666C185.273 187.802 184.827 178.57 182.044 170.633C176.5 154.826 171.578 144.416 170.361 143.4C165.105 139.012 154.03 140.871 153.091 141.268C150.61 142.317 159.261 146.201 162.971 149.373C164.963 151.077 166.579 155.723 170.147 168.535C172.845 178.224 175.835 194.773 177.694 207.71C180.817 229.448 179.817 240.209 179.087 243.397C178.21 247.226 176.475 249.977 174.908 251.469C168.517 257.554 151.659 257.487 146.871 256.969C143.664 256.622 141.939 252.497 137.434 248.66C124.304 237.475 115.471 241.997 111.541 243.253C109.792 243.811 108.211 244.492 106.941 246.404C104.66 249.839 105.718 254.039 105.95 255.924C106.374 259.359 111.968 262.139 135.517 271.961C140.334 273.971 141.132 274.597 141.087 274.568C135.172 270.721 128.321 262.719 127.722 261.17C127.434 260.427 127.789 259.602 128.322 259.277C134.181 255.703 146.174 277.92 150.764 286.575C153.718 292.145 151.192 299.09 149.32 302.219C148.595 303.432 147.728 303.471 147.001 303.056C143.561 301.089 143.599 295.987 143.519 292.085C143.357 284.117 156.093 275.987 157.346 275.108C162.793 271.288 175.162 275.666 178.768 277.044C181.843 278.22 182.317 283.559 183.646 287.257C184.241 288.915 186.081 289.666 187.556 289.987C193.76 291.339 190.917 271.75 192.123 267.872C192.472 266.752 193.156 267.723 193.402 268.645C194.423 272.464 195.322 276.533 196.085 279.181C196.457 280.473 190.818 278.289 176.249 272.785C165.039 268.549 145.474 263.084 133.333 259.008C111.161 251.564 107.534 248.235 104.233 248.517C102.231 248.688 102.567 252.099 102.506 253.648C102.27 259.55 108.6 265.971 115.201 272.299C120.441 277.323 127.126 278.718 130.489 278.943C138.847 279.5 115.903 281.627 110.917 286.067C109.257 287.544 108.146 290.612 107.048 294.119C106.634 295.444 107.464 296.054 108.275 296.336C109.086 296.618 110.098 296.607 110.957 296.446C116.553 295.397 121.333 285.802 122.187 280.874C122.633 278.298 121.917 275.971 120.882 274.163C118.481 269.971 111.402 269.629 105.726 267.295C101.105 265.394 99.7239 261.204 98.0032 255.172C96.0814 248.435 102.431 239.535 105.874 236.241C106.622 235.526 107.861 235.619 116.536 235.079C125.21 234.539 141.489 233.673 151.022 233.261C162.844 232.75 165.961 232.315 167.222 230.941C168.311 229.755 169.075 221.585 170.214 204.504C170.872 194.651 170.362 182.325 170.182 175.448C169.972 167.493 169.122 165.548 167.978 164.189C167.017 163.049 164.927 163.382 163.162 163.695C162.334 163.842 161.82 164.593 161.538 165.844C160.063 172.372 162.095 177.056 161.747 179.087C161.605 179.915 160.703 180.076 160.077 179.922C158.762 179.599 157.992 178.023 157.519 176.583C156.417 173.228 159.479 167.58 158.643 162.533C157.677 156.707 154.211 154.828 150.088 151.648C137.328 141.806 129.965 135.631 127.249 134.488C126.639 134.232 125.964 135.074 125.624 135.701C124.196 138.337 124.824 141.89 125.959 146.966C129.267 161.763 137.913 165.202 141.259 167.58C145.052 170.276 151.97 171.002 156.431 170.736C157.371 170.68 157.847 169.417 158.18 168.532C158.512 167.647 158.574 166.779 158.308 165.944C156.497 160.251 147.639 155.659 145.103 152.081C142.351 148.197 141.212 145.036 141.133 141.515C141.083 139.271 140.062 137.434 140.348 136.172C142.911 124.844 172.839 134.861 174.536 135.574C181.41 138.464 182.557 153.599 183.045 163.625C183.441 171.774 182.946 186.177 182.533 193.972C182.12 201.767 181.499 202.526 180.737 202.996C179.974 203.466 179.09 203.624 178.148 203.455C176.153 203.096 171.759 199.089 164.819 193.081C158.333 187.467 149.979 180.692 143.652 173.709C141.733 171.591 143.107 171.807 146.253 173.819C149.399 175.83 154.448 179.487 159.381 184.051C164.313 188.614 168.977 193.973 173.184 199.674C177.39 205.376 180.998 211.259 185.29 220.171C189.581 229.083 194.447 240.846 197.208 247.836C199.969 254.827 200.478 256.689 200.772 267.736C201.065 278.783 201.129 298.959 200.931 309.065C200.734 319.17 200.274 318.593 197.145 310.693C194.017 302.794 188.234 287.589 184.499 278.451C179.632 266.542 177.205 263.386 175.968 262.334C175.316 261.78 174.237 261.719 173.369 261.812C171.716 261.991 170.524 263.4 169.601 264.846C167.861 267.571 168.084 284.941 169.381 294.694C170.056 295.146 171.04 295.374 171.919 295.49C172.799 295.605 173.543 295.602 174.859 295.141" stroke="var(--stroke-0, #AABFA4)" stroke-width="16" stroke-linecap="round"/>
<g id="dino">
<path id="Vector 2" d="M160.2 131.959C156.746 131.929 143.268 130.178 130.776 129.439C124.862 129.089 121.737 134.369 116.793 140.964C115.128 143.184 115.021 147.236 115.321 152.124C115.643 157.372 121.92 159.578 126.629 162.724C131.825 164.987 136.541 167.052 139.242 168.232C140.484 168.64 141.465 168.664 143.79 169.496" stroke="var(--stroke-0, black)" stroke-width="2" stroke-linecap="round"/>
<path id="Vector 3" d="M139.411 138.56C139.477 138.56 140.435 138.56 142.237 138.863C143.114 139.166 143.915 139.772 144.46 140.615C145.005 141.458 145.269 142.519 145.802 145.898" stroke="var(--stroke-0, black)" stroke-width="2" stroke-linecap="round"/>
<path id="Vector 4" d="M160.122 129.598C163.763 129.598 173.434 129.852 178.438 131.45C182.609 132.782 185.57 135.186 186.875 137.272C188.612 140.048 188.563 147.497 189.989 162.116C190.666 171.628 191.248 185.391 191.233 194.316C191.218 203.242 190.587 206.912 188.676 212.602" stroke="var(--stroke-0, black)" stroke-width="2" stroke-linecap="round"/>
<path id="Vector 6" d="M192.187 210.541C192.187 214.575 192.845 225.569 196.121 233.391C197.399 235.994 198.119 238.238 198.463 242.164C198.587 244.833 198.607 248.876 197.738 252.988" stroke="var(--stroke-0, black)" stroke-width="2" stroke-linecap="round"/>
<path id="Vector 7" d="M160.008 222.13C158.875 222.149 143.864 225.324 125.031 226.635C108.007 227.82 104.033 225.083 102.306 225.871C98.7894 227.478 97.6176 232.481 93.3067 238.652C89.3314 244.341 88.4697 254.07 87.6014 259.103C86.8271 263.59 94.347 268.574 101.804 273.476C111.649 278.281 121.514 282.233 127.931 283.668C130.932 284.185 133.416 284.274 136.377 283.612" stroke="var(--stroke-0, black)" stroke-width="2" stroke-linecap="round"/>
<path id="Vector 8" d="M92.8475 237.614C92.7723 237.614 89.1618 237.614 83.3681 237.315C77.2031 236.996 73.6452 228.676 72.5612 224.605C72.2955 223.607 72.4783 222.518 72.4783 223.287C72.4783 231.528 75.0519 238.682 78.045 242.407C79.8263 243.29 82.1934 243.78 85.2298 244.227C86.8469 244.493 88.6187 244.839 90.8466 245.195" stroke="var(--stroke-0, black)" stroke-width="2" stroke-linecap="round"/>
<path id="Vector 9" d="M105.092 278.025C105.084 279.049 104.197 282.768 100.532 289.02C98.951 291.717 98.6936 295.995 99.098 300.562C99.2588 302.379 100.742 302.914 101.763 303.349C107.55 305.814 115.75 304.054 117.392 302.724C120.25 298.253 122.418 295.021 123.997 292.259C124.736 291.09 125.345 290.393 126.216 287.211" stroke="var(--stroke-0, black)" stroke-width="2" stroke-linecap="round"/>
<path id="Vector 10" d="M134.444 284.288C134.591 288.904 135.327 302.89 137.474 307.527C138.42 309.573 142.16 308.62 144.623 308.336C149.501 307.774 155.548 297.396 159.391 291.181C159.94 290.154 160.438 289.134 160.947 288.201C161.455 287.267 161.959 286.45 161.144 285.046" stroke="var(--stroke-0, black)" stroke-width="2" stroke-linecap="round"/>
<path id="Vector 11" d="M202.259 257.442C202.08 258.53 199.131 263.219 185.475 273.601C176.649 278.382 171.117 280.687 169.234 280.542C168.254 280.243 167.224 279.484 166.164 278.702" stroke="var(--stroke-0, black)" stroke-width="2" stroke-linecap="round"/>
<path id="Vector 12" d="M198.646 271.406C198.93 272.59 204.536 283.389 207.41 290.947C207.868 292.15 207.468 293.872 207.103 295.123C206.737 296.375 206.007 297.189 205.158 297.698C203.513 298.686 201.481 298.533 198.728 297.64C189.716 294.716 187.648 287.557 185.29 281.169C184.687 280.027 183.941 279.497 182.756 279.021C181.571 278.546 179.969 278.14 176.453 277.274" stroke="var(--stroke-0, black)" stroke-width="2" stroke-linecap="round"/>
<path id="Vector 13" d="M167.164 283.498C167.283 284.862 168.948 289.975 172.897 295.165C176.269 297.668 179.2 298.555 182.343 298.879C184.422 298.989 187.48 298.989 190.969 298.184" stroke="var(--stroke-0, black)" stroke-width="2" stroke-linecap="round"/>
<path id="Vector 14" d="M118.464 157.862C118.381 158.459 118.066 160.16 117.865 161.114C117.403 163.305 121.804 163.493 123.558 164.517C124 164.775 124.333 165.165 124.569 165.066C124.805 164.967 124.896 164.424 125.026 163.875C125.155 163.326 125.32 162.787 126.017 161.096" stroke="var(--stroke-0, black)" stroke-width="2" stroke-linecap="round"/>
<path id="Vector 15" d="M127.689 163.08C127.689 164.031 127.773 166.252 128.16 167.159C128.578 168.135 130.161 168.567 131.371 169.157C132.413 169.095 133.206 168.502 133.871 167.778C134.231 167.441 134.637 167.168 135.15 166.887" stroke="var(--stroke-0, black)" stroke-width="2" stroke-linecap="round"/>
<path id="Vector 16" d="M139.891 143C139.93 143 139.204 143.001 137.871 143.151C136.793 143.272 136.231 144.442 135.822 145.533C135.621 146.072 135.54 146.619 135.746 146.886C135.951 147.153 136.474 147.134 137.024 146.813C138.28 146.081 139.036 144.801 139.318 144.302C139.357 144.234 138.849 144.553 138.686 144.391C138.524 144.229 138.637 143.58 138.572 143.48C138.258 143.846 138.003 145.035 138.131 145.609C138.259 145.475 138.515 144.478 138.424 144.531" stroke="var(--stroke-0, black)" stroke-width="2" stroke-linecap="round"/>
<path id="Vector 17" d="M121.511 174.982C121.511 175.015 126.795 175.05 135.908 174.923C139.735 174.78 141.946 174.477 144.208 174.299C146.471 174.122 148.719 174.081 150.899 174.137" stroke="var(--stroke-0, black)" stroke-width="2" stroke-linecap="round"/>
<path id="Vector 18" d="M121.99 174.159C121.99 174.192 122.457 174.227 125.196 174.774C131.6 176.055 139.004 178.922 144.541 181.578C150.96 184.658 154.83 191.312 158.334 195.736C159.071 196.96 159.26 197.971 159.324 199.057C159.366 199.582 159.426 200.054 159.489 200.677" stroke="var(--stroke-0, black)" stroke-width="2" stroke-linecap="round"/>
<path id="Vector 19" d="M124.291 174.854C124.291 174.252 123.769 172.259 123.127 170.75C123.013 170.481 123.653 170.323 124.198 170.419C125.448 170.642 126.387 171.599 126.897 172.522C127.07 173.07 127.07 173.78 127.134 174.357C127.198 174.934 127.327 175.356 127.723 175.815" stroke="var(--stroke-0, black)" stroke-width="2" stroke-linecap="round"/>
<path id="Vector 20" d="M131.6 175.584C131.668 174.987 131.554 173.181 131.506 172.154C131.486 171.712 131.96 171.474 132.691 171.354C133.421 171.235 134.518 171.254 135.096 171.834C135.674 172.414 135.701 173.556 135.921 175.38" stroke="var(--stroke-0, black)" stroke-width="2" stroke-linecap="round"/>
<path id="Vector 21" d="M159.632 200.543C159.632 200.619 159.624 204.91 159.508 211.929C159.406 218.123 157.525 220.625 156.734 221.516C155.711 222.247 154.946 222.601 154.366 222.666C154.053 222.638 153.704 222.489 153.344 222.334" stroke="var(--stroke-0, black)" stroke-width="2" stroke-linecap="round"/>
</g>
</g>
</svg>
