<svg preserveAspectRatio="none" width="100%" height="100%" overflow="visible" style="display: block;" viewBox="0 0 18 19" fill="none" xmlns="http://www.w3.org/2000/svg">
<g id="Frame 23">
<path id="Arrow 1" d="M10 3C10 2.44772 9.55228 2 9 2C8.44772 2 8 2.44772 8 3H9H10ZM8.29289 16.7071C8.68342 17.0976 9.31658 17.0976 9.70711 16.7071L16.0711 10.3431C16.4616 9.95262 16.4616 9.31946 16.0711 8.92893C15.6805 8.53841 15.0474 8.53841 14.6569 8.92893L9 14.5858L3.34315 8.92893C2.95262 8.53841 2.31946 8.53841 1.92893 8.92893C1.53841 9.31946 1.53841 9.95262 1.92893 10.3431L8.29289 16.7071ZM9 3H8V16H9H10V3H9Z" fill="var(--stroke-0, #012611)"/>
</g>
</svg>
